<?xml version="1.0" standalone="no"?>
<!DOCTYPE svg PUBLIC "-//W3C//DTD SVG 20010904//EN"
 "http://www.w3.org/TR/2001/REC-SVG-20010904/DTD/svg10.dtd">
<svg version="1.0" xmlns="http://www.w3.org/2000/svg"
 width="468pt" height="353pt" viewBox="0 0 468 353"
 preserveAspectRatio="xMidYMid meet">
<metadata>
Created by potrace 1.8, written by Peter Selinger 2001-2007
</metadata>
<g transform="translate(0,353) scale(0.081675,-0.081675)"
fill="#000000" stroke="none">
<path d="M2232 3919 l-103 -39 -150 15 c-193 21 -189 20 -292 39 -98 19 -103
18 -249 -35 l-107 -38 -58 18 c-166 53 -171 54 -292 47 -125 -7 -265 -28 -348
-51 -73 -21 -90 -48 -98 -160 -7 -98 -14 -112 -76 -147 -48 -27 -59 -53 -65
-157 -3 -47 -12 -103 -20 -124 -10 -28 -11 -43 -4 -57 6 -11 12 -20 13 -20 1
0 26 7 55 14 44 12 57 12 80 1 29 -14 138 -43 212 -56 101 -17 117 -20 175
-33 33 -8 93 -19 133 -26 83 -14 87 -22 46 -82 -36 -52 -68 -58 -169 -36 -44
10 -103 22 -131 27 -28 5 -71 15 -95 22 -24 6 -60 15 -79 20 -124 27 -195 51
-217 70 -23 23 -24 23 -43 3 -17 -17 -21 -37 -24 -144 -3 -69 -7 -159 -11
-200 -11 -146 -14 -312 -17 -945 -2 -511 0 -648 10 -680 8 -22 13 -48 13 -57
0 -10 4 -18 10 -18 5 0 9 8 9 19 0 10 11 26 24 34 22 15 30 15 88 1 94 -23
314 -82 388 -104 36 -11 88 -25 115 -31 28 -7 54 -16 59 -20 6 -5 25 -9 44 -9
l34 0 -18 28 c-17 24 -19 52 -22 243 l-4 216 26 27 25 28 20 -39 c11 -22 29
-69 41 -105 12 -37 30 -77 42 -90 11 -12 37 -52 59 -88 36 -61 70 -99 177
-199 47 -45 51 -56 22 -73 -43 -27 -27 -37 85 -54 59 -8 130 -30 157 -48 66
-43 201 -71 328 -68 41 1 131 -7 200 -18 69 -10 187 -22 262 -24 l137 -6 23
28 c14 17 51 39 93 55 39 15 87 37 107 50 20 12 61 36 90 53 112 66 277 281
316 411 18 62 37 133 49 190 3 13 1 23 -5 23 -12 0 -41 -86 -44 -134 -2 -20
-6 -36 -10 -36 -5 0 -8 -5 -8 -10 0 -21 -45 -60 -75 -65 -48 -9 -60 6 -58 70
2 30 1 55 -2 55 -2 0 -14 -21 -25 -47 -64 -144 -136 -261 -178 -287 -8 -4 -24
-19 -35 -33 -35 -40 -125 -105 -139 -101 -8 3 17 36 63 84 42 43 90 100 107
126 51 75 102 213 107 288 2 36 2 56 -1 45 -6 -22 -10 -32 -53 -128 -17 -37
-31 -71 -31 -77 0 -24 -92 -164 -130 -197 -14 -12 -36 -23 -49 -23 -21 0 -23
3 -17 32 3 18 10 34 14 38 4 3 16 23 27 45 11 22 25 47 32 55 6 8 14 27 16 41
3 14 12 46 20 70 27 79 29 105 12 119 -13 11 -15 9 -15 -10 0 -32 -57 -193
-87 -249 -95 -172 -181 -234 -222 -159 -14 25 -14 30 6 65 11 21 26 56 33 78
7 22 16 45 20 50 14 19 50 200 53 272 4 72 -4 103 -25 103 -8 0 -9 -3 -2 -10
12 -12 -8 -198 -26 -250 -58 -161 -102 -229 -205 -319 -100 -87 -190 -124
-339 -142 -92 -10 -120 -7 -258 29 -167 44 -365 206 -480 394 -21 34 -38 69
-38 78 0 8 -7 25 -15 37 -8 12 -31 69 -50 128 -44 132 -51 225 -22 288 15 31
20 66 21 132 2 97 8 115 66 186 101 125 149 164 267 219 158 74 365 79 510 14
17 -8 38 -14 47 -14 9 0 16 -4 16 -9 0 -13 122 -81 132 -74 12 7 -11 33 -28
33 -8 0 -14 7 -14 15 0 8 -6 15 -12 15 -14 0 -120 51 -140 67 -22 18 -231 68
-247 59 -3 -2 -37 -7 -76 -10 -88 -8 -137 -16 -150 -26 -5 -4 -21 -11 -35 -15
-34 -10 -114 -60 -173 -108 -48 -39 -107 -119 -126 -169 -10 -26 -66 -61 -83
-51 -32 17 27 151 109 248 96 115 272 220 423 251 145 31 410 19 488 -22 15
-8 37 -14 48 -14 12 0 24 -7 28 -15 3 -8 14 -15 25 -15 11 0 24 -8 30 -17 7
-14 13 -15 21 -7 7 7 8 14 3 17 -52 31 -145 77 -158 77 -8 0 -15 4 -15 9 0 5
-17 11 -37 14 -21 3 -72 10 -113 17 -45 7 -124 10 -197 6 -124 -5 -160 4 -106
25 15 6 37 16 48 21 43 19 163 45 220 47 102 3 259 -26 327 -60 10 -5 26 -9
36 -9 10 0 27 -7 38 -15 29 -22 36 -18 29 14 -11 53 50 54 127 2 25 -17 50
-31 54 -31 17 0 129 -81 159 -115 32 -35 85 -57 85 -35 0 7 -7 10 -16 6 -11
-4 -15 -2 -11 8 3 8 -9 28 -30 46 l-35 32 20 21 c31 30 97 28 148 -5 23 -15
44 -25 47 -22 3 3 8 -5 12 -18 8 -23 22 -38 39 -38 6 0 2 6 -7 13 -9 6 -19 24
-22 38 -11 44 14 54 139 55 61 1 141 2 179 3 37 1 67 5 67 9 0 12 -132 43
-199 48 -30 2 -102 10 -160 18 -59 8 -160 22 -226 32 -66 9 -128 20 -138 26
-14 7 -24 4 -44 -16 -32 -32 -86 -35 -141 -6 -34 18 -68 27 -167 46 -16 3
-104 9 -195 12 -99 4 -165 11 -165 17 0 6 27 21 60 35 54 22 73 25 185 24 100
-1 138 -5 190 -23 35 -12 87 -24 115 -27 43 -5 52 -4 52 10 0 9 -4 16 -9 16
-4 0 -8 5 -8 10 0 17 22 15 340 -31 135 -19 394 -60 445 -70 105 -21 124 -27
170 -52 55 -31 73 -33 82 -11 10 27 49 34 126 24 40 -5 146 -14 237 -20 91 -6
217 -15 280 -20 63 -5 156 -12 205 -15 178 -12 198 -14 206 -22 4 -4 11 -27
15 -50 6 -41 5 -43 -25 -56 -22 -10 -51 -11 -99 -6 -142 16 -310 31 -368 34
-33 1 -76 6 -95 10 -19 4 -59 9 -89 11 -77 5 -253 21 -327 30 -51 5 -63 4 -63
-7 -2 -219 0 -374 4 -544 12 -461 16 -644 21 -965 3 -184 8 -353 11 -375 4
-32 1 -46 -16 -68 -50 -64 -123 -69 -132 -9 -3 22 1 34 14 44 17 11 19 26 17
109 -1 53 2 102 5 108 4 6 3 11 -3 11 -5 0 -13 -4 -16 -10 -3 -5 -17 -10 -30
-10 -35 0 -38 -12 -20 -81 13 -50 14 -67 4 -91 -15 -37 -56 -58 -113 -58 -25
0 -48 -5 -51 -11 -4 -6 -13 -8 -20 -5 -7 2 -16 -2 -19 -9 -3 -8 -12 -12 -20
-9 -8 3 -22 1 -31 -4 -16 -8 15 -16 160 -39 11 -1 36 -6 55 -9 19 -4 43 -6 52
-5 9 1 35 -3 56 -8 22 -6 97 -16 168 -21 71 -6 158 -15 194 -20 36 -6 94 -12
130 -14 36 -3 72 -7 80 -10 8 -3 65 -10 125 -16 246 -23 391 -41 418 -51 37
-16 37 -53 -1 -73 -29 -15 -141 -24 -158 -13 -6 3 -32 8 -60 12 -27 3 -67 8
-89 11 -22 3 -58 7 -80 10 -22 2 -76 9 -120 16 -44 6 -114 12 -155 14 -41 2
-104 8 -140 13 -36 5 -135 17 -220 26 -85 9 -184 22 -220 29 -36 8 -76 14 -90
14 -14 -1 -51 7 -83 16 -32 9 -78 16 -102 16 -24 0 -47 5 -50 10 -3 6 -27 10
-53 10 -26 0 -69 7 -96 15 -28 8 -82 18 -120 20 -39 3 -86 11 -104 16 -18 6
-36 9 -38 6 -3 -3 -31 1 -63 8 -31 8 -86 16 -121 19 -36 3 -105 12 -155 21
-92 15 -159 25 -206 29 -14 2 -30 6 -36 9 -5 3 -41 9 -79 12 -38 3 -87 12
-109 19 -22 8 -74 16 -115 20 -41 4 -88 11 -105 16 -16 5 -64 11 -107 14 -42
2 -91 9 -110 15 -18 6 -98 22 -178 37 -150 27 -260 51 -295 65 -11 4 -54 15
-95 25 -41 9 -83 21 -92 25 -9 5 -35 11 -58 14 -23 3 -55 12 -70 20 -16 8 -41
15 -55 15 -33 0 -139 37 -143 50 -2 6 -11 10 -20 10 -8 0 -24 8 -35 18 -20 16
-20 16 -14 -8 4 -14 7 -30 7 -36 0 -9 65 -34 100 -39 11 -2 56 -17 75 -25 31
-14 134 -40 190 -49 28 -5 70 -16 95 -25 25 -9 67 -19 93 -22 27 -3 60 -12 73
-21 13 -8 24 -11 24 -7 0 5 4 4 8 -1 9 -13 210 -62 287 -71 110 -12 130 -14
160 -24 17 -5 64 -12 105 -15 41 -4 104 -11 140 -17 36 -5 90 -11 120 -13 30
-1 63 -6 73 -10 9 -4 24 -4 33 -1 8 3 13 2 10 -3 -3 -4 22 -11 57 -15 64 -6
171 -25 197 -34 8 -2 35 -6 60 -8 79 -7 177 -21 188 -28 6 -3 48 -11 94 -16
78 -9 134 -19 238 -40 25 -6 61 -12 80 -15 19 -2 73 -11 120 -20 47 -8 120
-20 164 -25 43 -6 82 -12 86 -15 26 -16 337 -51 545 -61 72 -4 135 -10 141
-15 6 -5 69 -13 140 -19 71 -5 145 -14 164 -20 19 -5 91 -14 160 -19 69 -6
138 -14 154 -19 50 -14 127 3 187 41 29 19 90 53 134 76 195 101 215 122 215
230 0 33 7 82 16 108 13 36 14 65 9 132 -4 47 -9 129 -11 181 -3 52 -6 115 -8
140 -10 109 -20 513 -17 640 2 56 -8 310 -15 380 -4 47 -7 142 -5 211 3 136
-6 171 -51 203 -36 26 -62 19 -158 -39 -100 -61 -140 -76 -140 -53 0 9 34 37
76 64 108 69 146 107 142 140 -2 15 -10 32 -19 37 -17 11 -24 7 -155 -81 -50
-34 -90 -49 -101 -38 -10 10 18 36 107 97 105 71 115 93 100 210 -5 41 -12 81
-15 89 -6 17 -66 60 -82 60 -28 0 -38 34 -35 114 3 79 3 82 -30 119 -37 42
-106 66 -308 107 -92 19 -126 21 -273 17 l-167 -5 -30 43 c-17 24 -30 48 -30
54 0 6 -17 21 -37 34 -36 23 -71 33 -138 41 -16 2 -70 11 -120 19 -49 9 -125
18 -168 21 -44 4 -87 11 -97 16 -10 6 -34 10 -54 10 -42 0 -66 8 -66 23 0 6
-9 30 -20 53 -29 60 -85 85 -177 80 -42 -3 -87 -13 -117 -26 -45 -20 -142 -30
-165 -16 -3 2 -27 7 -51 11 -66 9 -94 22 -114 55 -20 34 -58 48 -89 31 -73
-37 -142 -81 -147 -94 -7 -21 -76 -67 -100 -67 -53 0 -3 62 99 123 53 31 76
57 49 57 -7 -1 -59 -19 -116 -41z m-571 -38 l24 -19 -38 -15 c-35 -15 -102
-13 -112 3 -2 4 3 16 11 28 20 28 82 30 115 3z m-801 5 c0 -9 -92 -55 -118
-60 -15 -2 -43 -9 -62 -15 -19 -6 -44 -11 -55 -11 -38 0 15 38 90 64 61 21
145 34 145 22z m1053 -23 c22 -5 25 -8 15 -20 -31 -38 -104 -55 -115 -27 -8
20 36 66 57 59 8 -4 27 -9 43 -12z m527 13 c0 -5 -65 -46 -74 -46 -16 0 -3 20
22 33 27 15 52 21 52 13z m-1102 -33 c46 -13 62 -22 62 -36 0 -32 -28 -85 -48
-91 -24 -8 -46 -57 -38 -84 9 -26 -17 -47 -41 -33 -10 6 -13 11 -6 11 13 0 8
25 -10 48 -13 16 -27 -2 -27 -35 0 -13 -5 -23 -11 -23 -5 0 -8 -4 -5 -9 8 -13
-20 -33 -41 -29 -14 3 -17 12 -15 53 2 42 8 55 36 80 31 28 33 32 22 60 -6 17
-17 41 -25 55 -8 14 -15 33 -16 43 -2 16 4 17 49 13 28 -3 79 -14 114 -23z
m1685 3 c24 -18 23 -21 -25 -49 -45 -26 -61 -30 -117 -28 -30 1 -32 3 -20 18
22 25 102 73 124 72 11 0 28 -6 38 -13z m-877 -37 c13 -15 18 -36 19 -77 l0
-56 60 -13 c33 -6 81 -12 107 -13 26 0 57 -4 70 -9 13 -5 64 -14 113 -21 50
-6 110 -16 135 -22 25 -6 61 -12 80 -14 19 -2 64 -8 100 -13 81 -13 123 -4
192 42 30 20 75 46 101 57 43 19 50 20 119 6 74 -15 167 -28 338 -47 52 -5
108 -13 123 -17 29 -7 29 -8 10 -29 -16 -20 -99 -68 -263 -156 -51 -27 -60
-28 -130 -22 -41 3 -79 10 -85 15 -5 4 -48 13 -95 19 -47 6 -114 15 -150 20
-36 5 -104 14 -152 20 -48 6 -109 16 -135 21 -26 6 -104 20 -173 31 -69 11
-136 22 -150 24 -14 3 -59 9 -100 14 -104 12 -221 30 -229 35 -7 5 -151 26
-211 31 -78 7 -226 26 -242 31 -56 17 20 54 110 54 74 0 123 14 257 74 94 42
152 47 181 15z m-1176 -4 c16 -8 34 -23 39 -33 10 -19 7 -199 -3 -210 -9 -8
-56 -9 -56 0 0 4 5 10 10 13 6 4 8 11 5 16 -4 5 0 9 7 9 10 0 10 2 -1 9 -7 5
-11 13 -7 19 3 5 0 15 -8 21 -26 22 -41 -19 -35 -94 2 -15 33 -55 44 -55 1 0
51 -9 111 -20 60 -11 126 -20 147 -20 35 0 37 -2 27 -20 -16 -29 -86 -62 -118
-55 -15 3 -38 8 -52 11 -14 3 -32 6 -40 6 -15 0 -120 24 -250 55 -61 15 -117
26 -199 38 -19 3 -43 11 -54 16 -19 11 -19 12 5 36 31 31 73 36 112 13 17 -9
36 -15 43 -13 6 2 25 -3 42 -11 31 -17 89 -21 106 -8 11 8 12 43 1 60 -4 7
-20 3 -46 -9 -37 -18 -47 -19 -103 -8 -82 15 -127 49 -127 93 0 22 8 40 25 56
23 22 30 23 73 14 55 -11 82 -8 82 10 0 17 39 52 70 65 38 15 117 13 150 -4z
m623 8 c12 -11 59 -12 122 -4 65 9 77 7 69 -13 -9 -24 -80 -49 -121 -43 -39 6
-133 -11 -171 -32 -30 -16 -44 -6 -36 26 10 40 53 72 95 73 20 0 39 -3 42 -7z
m1126 -7 c25 -9 37 -21 45 -47 9 -27 17 -35 40 -37 19 -2 32 2 38 12 13 22 35
20 49 -5 10 -20 9 -21 -14 -17 -21 4 -24 1 -22 -23 3 -36 -3 -44 -46 -62 -32
-13 -45 -13 -130 4 -52 10 -95 19 -96 19 -10 1 0 32 12 36 8 4 15 16 15 29 0
33 -52 51 -74 26 -9 -10 -16 -25 -16 -34 0 -27 -55 -47 -113 -41 -58 6 -107
22 -107 35 0 9 120 81 173 104 40 18 199 18 246 1z m-1593 -139 c14 -32 -5
-88 -36 -104 -13 -6 -28 -10 -32 -7 -16 10 -8 81 13 108 25 32 41 33 55 3z
m249 -24 c-5 -21 -9 -23 -18 -13 -9 10 -9 14 1 17 6 3 12 14 13 26 0 12 3 16
6 9 3 -7 2 -25 -2 -39z m285 -28 c131 -16 227 -32 238 -38 4 -3 36 -8 72 -11
36 -4 184 -27 330 -51 297 -48 397 -63 520 -75 47 -5 119 -16 160 -24 41 -9
113 -20 160 -26 190 -23 251 -38 289 -68 19 -16 38 -37 41 -48 5 -19 39 -74
51 -84 3 -3 12 -22 18 -42 7 -21 26 -48 42 -62 16 -14 29 -29 29 -34 0 -12 30
-20 49 -14 9 3 5 11 -15 27 l-29 23 25 27 c14 14 44 31 67 38 37 10 43 15 43
38 0 15 7 40 15 55 17 34 19 60 5 69 -5 3 -10 17 -10 30 0 51 146 105 270 99
215 -9 312 -16 355 -24 28 -5 74 -12 102 -15 44 -6 56 -12 70 -35 9 -16 28
-34 42 -41 43 -22 48 -28 43 -54 -3 -16 -13 -27 -27 -31 -28 -7 -45 -44 -47
-101 -1 -28 -7 -44 -17 -48 -9 -3 -17 -1 -19 4 -2 6 -10 11 -18 11 -9 0 -13
-4 -9 -9 8 -14 -64 -26 -77 -13 -8 8 -7 20 2 43 12 28 11 33 -3 44 -9 7 -17
18 -17 25 0 10 -4 9 -17 -2 -10 -9 -34 -15 -53 -14 -19 1 -46 -4 -60 -11 -20
-10 -28 -10 -47 2 -19 13 -26 13 -57 0 -33 -14 -36 -14 -50 7 -26 36 -45 8
-44 -63 2 -67 15 -85 54 -75 17 5 43 -1 79 -19 30 -14 59 -25 65 -25 7 0 10
-6 8 -12 -3 -9 -30 -13 -94 -12 -132 2 -287 14 -294 22 -3 4 -23 7 -45 8 -74
2 -116 7 -121 16 -3 4 -18 8 -35 8 -40 0 -38 -26 4 -43 29 -13 194 -32 352
-42 33 -3 76 -7 95 -9 36 -6 242 -22 295 -24 54 -2 120 -14 133 -24 13 -12 17
-155 4 -175 -14 -22 -53 -29 -105 -21 -29 5 -99 11 -157 14 -58 2 -121 8 -140
11 -19 4 -53 7 -75 8 -79 4 -348 26 -354 30 -4 2 -48 6 -98 9 -50 3 -129 10
-175 15 -46 6 -110 12 -143 15 -33 2 -72 9 -87 15 -27 10 -97 21 -263 42 -44
5 -102 14 -130 20 -27 5 -63 11 -80 13 -16 2 -57 9 -90 15 -33 6 -85 14 -115
17 -30 2 -98 12 -150 20 -183 29 -276 43 -365 54 -49 6 -133 18 -185 26 -52 8
-120 17 -150 20 -49 5 -100 13 -325 55 -59 11 -110 17 -210 23 -27 1 -57 5
-65 8 -8 3 -49 11 -90 18 -41 7 -81 16 -90 20 -23 12 -154 40 -187 40 -16 0
-33 3 -37 7 -3 4 -12 8 -19 10 -19 4 -191 32 -203 33 -5 0 -19 6 -29 14 -17
12 -19 25 -17 87 2 66 6 77 29 97 22 20 34 23 76 19 27 -3 72 -12 100 -21 83
-24 272 -66 296 -66 12 0 30 -4 40 -10 10 -5 59 -14 109 -20 83 -10 95 -10
136 8 35 16 51 32 75 74 119 212 121 213 351 183z m2980 -400 c0 -8 -4 -15
-10 -15 -5 0 -7 7 -4 15 4 8 8 15 10 15 2 0 4 -7 4 -15z m-355 -75 c3 -6 -1
-13 -10 -16 -19 -8 -30 0 -20 15 8 14 22 14 30 1z m-2920 -84 c17 -3 66 -10
110 -15 44 -6 127 -17 185 -26 58 -8 140 -19 184 -24 43 -5 81 -13 85 -18 3
-4 29 -9 56 -11 61 -3 95 -10 95 -20 0 -11 -68 -38 -135 -53 -49 -12 -83 -12
-180 -3 -66 6 -129 14 -141 18 -11 3 -41 8 -65 11 -97 10 -142 16 -151 21 -11
7 -186 26 -226 25 -18 -1 -44 -6 -59 -12 -68 -26 -47 46 27 93 41 27 51 29
115 25 39 -3 84 -8 100 -11z m3350 -36 c-26 -29 -129 -78 -180 -86 -56 -8
-146 12 -139 31 6 15 38 25 109 32 28 3 88 15 135 27 47 12 87 20 89 19 2 -2
-4 -12 -14 -23z m-3470 -95 c39 -8 88 -21 110 -30 22 -8 48 -14 57 -15 31 0
108 -39 108 -54 0 -8 -17 -28 -37 -45 -134 -108 -213 -224 -302 -446 -48 -119
-86 -173 -108 -151 -4 4 -7 155 -7 336 2 362 2 361 69 401 36 23 25 22 110 4z
m553 -74 c22 -2 13 -20 -18 -36 -16 -9 -30 -22 -30 -30 0 -17 -48 -54 -110
-85 -63 -32 -168 -103 -210 -142 -62 -58 -101 -81 -113 -69 -16 16 13 66 88
154 58 68 111 114 215 185 46 31 44 31 178 23z m2973 -433 c-5 -13 -5 -34 -1
-48 11 -36 31 -321 29 -410 -1 -41 1 -113 4 -160 11 -145 17 -314 22 -615 3
-159 7 -339 9 -400 4 -92 1 -113 -13 -131 -14 -17 -20 -19 -33 -10 -25 19 -29
47 -33 267 -2 116 -7 273 -10 348 -3 75 -8 232 -10 349 -2 117 -6 216 -9 220
-3 5 -1 35 3 68 5 32 5 64 1 69 -15 19 -15 340 0 380 9 23 8 30 -4 37 -13 7
-12 12 6 33 28 32 51 34 39 3z m-493 -130 c11 -24 23 -106 25 -170 1 -46 -30
-92 -64 -96 -22 -3 -28 4 -47 50 -12 29 -22 64 -22 76 0 13 -4 31 -10 41 -22
41 37 121 90 121 9 0 22 -10 28 -22z m-1128 -1093 c0 -9 -9 -15 -25 -15 -18 0
-23 4 -19 15 4 8 15 15 25 15 10 0 19 -7 19 -15z m-107 -125 c7 -1 -1 -8 -16
-16 -32 -17 -43 -13 -33 12 4 10 12 14 22 10 9 -3 21 -6 27 -6z m377 -410 c0
-12 -34 -30 -57 -30 -16 1 -15 3 6 20 25 21 51 26 51 10z"/>
<path d="M1553 3503 c-5 -10 -8 -80 -8 -155 0 -156 3 -162 75 -172 94 -12 177
-26 245 -42 100 -23 128 -26 144 -15 15 10 33 171 19 171 -12 0 -28 -37 -28
-64 0 -15 -11 -33 -27 -46 -24 -19 -37 -22 -97 -17 -69 5 -95 19 -75 43 5 7
24 15 43 18 18 3 60 24 94 46 34 22 65 40 71 40 12 0 17 17 20 71 1 33 -3 50
-16 61 -15 13 -121 35 -258 53 -16 2 -54 9 -84 14 -78 16 -109 14 -118 -6z
m181 -66 c14 -11 17 -21 11 -46 -15 -69 -91 -97 -119 -43 -17 34 -6 66 31 86
35 19 54 20 77 3z"/>
<path d="M4025 3417 c-103 -26 -140 -42 -143 -65 -4 -26 19 -29 58 -7 14 8 57
19 95 26 63 11 70 14 70 36 0 26 -13 27 -80 10z"/>
<path d="M2818 3313 c-13 -15 -15 -42 -11 -148 5 -182 2 -179 193 -200 34 -4
63 -14 76 -26 15 -14 23 -16 31 -8 8 8 25 8 62 -1 68 -16 101 -8 101 26 0 32
-21 39 -58 20 -22 -12 -38 -13 -63 -6 -19 6 -48 10 -65 10 -17 0 -34 3 -37 7
-9 8 22 43 38 43 16 0 179 81 186 92 11 18 2 110 -13 124 -8 8 -55 22 -104 30
-49 8 -114 19 -144 24 -30 5 -73 14 -95 19 -58 15 -80 13 -97 -6z m199 -77
c10 -10 -26 -91 -43 -97 -30 -12 -59 -10 -79 4 -44 33 27 114 89 102 16 -3 31
-7 33 -9z"/>
<path d="M3809 3276 c14 -17 49 -27 56 -16 3 4 -9 13 -27 19 -40 14 -43 14
-29 -3z"/>
<path d="M3900 3241 c0 -6 9 -9 20 -8 11 1 20 5 20 9 0 4 -9 8 -20 8 -11 0
-20 -4 -20 -9z"/>
<path d="M3960 3229 c0 -5 11 -9 25 -9 14 0 25 2 25 4 0 2 -11 6 -25 8 -14 3
-25 1 -25 -3z"/>
<path d="M4484 3173 c-13 -14 -23 -27 -22 -27 2 -1 11 -8 21 -15 15 -12 17
-12 11 3 -4 9 -3 16 2 15 25 -4 51 14 47 32 -7 27 -30 24 -59 -8z"/>
<path d="M3765 3150 c4 -6 11 -8 16 -5 14 9 11 15 -7 15 -8 0 -12 -5 -9 -10z"/>
<path d="M3810 3123 c0 -14 102 -53 144 -56 65 -3 56 17 -15 33 -35 8 -65 18
-67 22 -5 10 -62 11 -62 1z"/>
<path d="M2410 2635 c0 -2 9 -9 20 -15 16 -9 20 -8 20 5 0 8 -9 15 -20 15 -11
0 -20 -2 -20 -5z"/>
<path d="M2470 2590 c0 -5 5 -10 10 -10 6 0 10 5 10 10 0 6 -4 10 -10 10 -5 0
-10 -4 -10 -10z"/>
<path d="M2340 2500 c0 -5 5 -10 10 -10 6 0 10 5 10 10 0 6 -4 10 -10 10 -5 0
-10 -4 -10 -10z"/>
<path d="M2380 2470 c0 -5 5 -10 11 -10 5 0 7 5 4 10 -3 6 -8 10 -11 10 -2 0
-4 -4 -4 -10z"/>
<path d="M3060 2421 c0 -19 47 -77 56 -68 7 7 -38 87 -48 87 -5 0 -8 -8 -8
-19z"/>
<path d="M2861 2414 c0 -11 3 -14 6 -6 3 7 2 16 -1 19 -3 4 -6 -2 -5 -13z"/>
<path d="M3420 2396 c0 -9 5 -16 10 -16 6 0 10 4 10 9 0 6 -4 13 -10 16 -5 3
-10 -1 -10 -9z"/>
<path d="M2705 2356 c-20 -30 -12 -66 14 -66 10 0 23 11 29 25 10 22 9 29 -7
46 l-19 21 -17 -26z"/>
<path d="M2900 2370 c0 -5 5 -10 11 -10 5 0 7 5 4 10 -3 6 -8 10 -11 10 -2 0
-4 -4 -4 -10z"/>
<path d="M3134 2314 c3 -9 6 -20 6 -25 0 -5 7 -9 15 -9 19 0 19 14 -1 34 -20
20 -28 20 -20 0z"/>
<path d="M2945 2290 c3 -5 10 -10 16 -10 5 0 9 5 9 10 0 6 -7 10 -16 10 -8 0
-12 -4 -9 -10z"/>
<path d="M2250 2281 c0 -6 4 -13 10 -16 6 -3 7 1 4 9 -7 18 -14 21 -14 7z"/>
<path d="M1678 2268 c-76 -10 -183 -53 -234 -94 -61 -49 -124 -152 -126 -204
0 -3 -3 -7 -8 -10 -13 -8 -21 -48 -11 -54 5 -3 12 5 15 18 10 42 76 144 117
180 40 37 120 81 199 110 46 16 220 27 220 14 0 -5 10 -8 23 -8 12 -1 33 -7
47 -15 31 -18 73 -20 68 -3 -3 7 -20 18 -39 24 -119 39 -141 44 -170 39 -18
-3 -35 -2 -38 2 -3 5 -32 5 -63 1z"/>
<path d="M3165 2260 c-4 -7 -2 -16 6 -21 18 -11 23 -4 11 17 -7 12 -11 13 -17
4z"/>
<path d="M2710 2244 c-19 -7 -46 -13 -61 -13 -15 -1 -38 -14 -57 -34 -18 -18
-68 -51 -112 -72 -48 -23 -82 -47 -86 -58 -10 -32 105 -239 140 -253 7 -3 57
16 112 42 69 33 110 47 135 45 34 -2 37 2 62 49 15 28 22 48 17 45 -16 -10
-20 12 -9 45 11 29 15 32 45 27 38 -6 38 -7 23 46 -9 33 -29 52 -29 27 0 -5
-17 -10 -37 -10 -52 1 -83 28 -83 73 0 46 -16 57 -60 41z m-13 -96 c11 -13 35
-53 54 -90 32 -66 33 -67 14 -88 -28 -31 -121 -78 -162 -82 -36 -3 -38 -2 -56
46 -10 27 -31 69 -47 92 -34 50 -32 52 70 108 77 41 100 44 127 14z"/>
<path d="M3000 2214 c0 -8 5 -12 10 -9 6 4 8 11 5 16 -9 14 -15 11 -15 -7z"/>
<path d="M2000 2180 c0 -5 5 -10 10 -10 6 0 10 5 10 10 0 6 -4 10 -10 10 -5 0
-10 -4 -10 -10z"/>
<path d="M2030 2170 c0 -7 24 -20 36 -20 13 0 1 19 -16 23 -11 3 -20 2 -20 -3z"/>
<path d="M3215 2160 c3 -5 8 -10 11 -10 2 0 4 5 4 10 0 6 -5 10 -11 10 -5 0
-7 -4 -4 -10z"/>
<path d="M3237 2143 c-4 -3 -7 -11 -7 -17 0 -6 5 -5 12 2 6 6 9 14 7 17 -3 3
-9 2 -12 -2z"/>
<path d="M1626 2093 c-3 -4 -13 -8 -22 -9 -30 -5 -112 -66 -138 -102 -34 -50
-62 -130 -48 -144 6 -6 18 8 35 45 42 92 135 168 219 179 15 2 30 7 34 11 4 4
35 7 68 8 46 1 55 3 36 9 -31 10 -174 12 -184 3z"/>
<path d="M1825 2051 c-22 -15 -59 -38 -83 -51 -84 -47 -141 -173 -129 -284 11
-105 106 -254 181 -282 116 -45 122 -46 180 -40 37 4 77 16 105 32 25 15 56
32 68 38 13 6 23 14 23 18 0 4 6 5 13 2 51 -19 51 138 0 258 -34 80 -80 153
-127 200 -20 20 -36 41 -36 45 0 7 -17 18 -95 62 -51 29 -60 30 -100 2z m23
-146 c2 -10 -8 -28 -22 -42 -14 -13 -27 -35 -27 -48 -1 -14 -2 -30 -3 -35 -2
-16 -28 -30 -58 -30 -22 0 -28 5 -28 21 0 34 52 121 85 141 34 21 49 19 53 -7z
m62 -54 c0 -5 -7 -14 -15 -21 -17 -14 -50 -6 -40 10 4 6 11 8 16 5 5 -4 9 -1
9 4 0 6 7 11 15 11 8 0 15 -4 15 -9z m-36 -104 c-10 -27 -74 -31 -74 -5 0 5
12 23 27 39 l28 29 12 -24 c7 -14 10 -31 7 -39z"/>
<path d="M3070 2050 c0 -5 5 -10 11 -10 5 0 7 5 4 10 -3 6 -8 10 -11 10 -2 0
-4 -4 -4 -10z"/>
<path d="M3261 2044 c0 -11 3 -14 6 -6 3 7 2 16 -1 19 -3 4 -6 -2 -5 -13z"/>
<path d="M3080 1988 c0 -9 5 -20 11 -23 17 -11 18 -2 3 19 -12 17 -14 17 -14
4z"/>
<path d="M3408 1945 c-29 -34 -83 -35 -93 -2 -6 21 -7 21 -16 -8 -8 -28 -4
-85 7 -85 3 0 17 9 32 19 15 11 44 22 65 26 20 3 37 11 37 18 0 7 3 22 6 35 8
30 -11 28 -38 -3z"/>
<path d="M2831 1818 c-1 -28 3 -38 14 -38 17 0 20 11 6 26 -5 5 -11 18 -14 29
-3 11 -5 4 -6 -17z"/>
<path d="M1405 1807 c-4 -8 -5 -26 -3 -39 4 -23 4 -23 18 5 10 21 11 30 2 39
-8 8 -13 7 -17 -5z"/>
<path d="M2847 1740 c3 -11 9 -20 13 -20 5 0 6 9 3 20 -3 11 -9 20 -13 20 -5
0 -6 -9 -3 -20z"/>
<path d="M3134 1735 c-2 -33 11 -33 14 0 1 14 -2 25 -6 25 -4 0 -8 -11 -8 -25z"/>
<path d="M3430 1750 c0 -17 -81 -53 -93 -41 -16 16 -23 14 -24 -6 -1 -10 -6
-45 -11 -78 -6 -37 -6 -64 -1 -70 12 -12 31 14 25 31 -11 29 69 80 106 68 16
-5 18 -1 14 33 -2 21 0 43 5 49 6 8 4 14 -6 18 -8 3 -15 1 -15 -4z"/>
<path d="M3017 1743 c-11 -10 -8 -43 3 -43 6 0 10 11 10 25 0 26 -2 29 -13 18z"/>
<path d="M2576 1731 c-3 -5 1 -14 9 -21 8 -7 15 -23 15 -36 0 -12 5 -26 10
-29 14 -8 13 38 -2 70 -12 26 -23 32 -32 16z"/>
<path d="M2845 1604 c0 -53 -3 -98 -8 -101 -11 -6 2 -23 18 -23 11 0 13 21 12
100 -1 55 -5 100 -10 100 -4 0 -5 5 -2 10 3 6 3 10 -2 10 -4 0 -8 -43 -8 -96z"/>
<path d="M2363 1648 c4 -10 2 -18 -3 -18 -4 0 -2 -13 6 -30 9 -16 17 -30 19
-30 8 0 -8 75 -18 85 -7 7 -8 4 -4 -7z"/>
<path d="M3145 1600 c-3 -5 -1 -10 4 -10 6 0 11 5 11 10 0 6 -2 10 -4 10 -3 0
-8 -4 -11 -10z"/>
<path d="M2377 1520 c-6 -13 -11 -34 -32 -135 -7 -29 -22 -64 -50 -114 -19
-33 -93 -108 -140 -140 -73 -49 -243 -90 -298 -72 -31 11 -60 0 -37 -14 20
-12 227 -6 269 9 97 33 214 130 247 204 47 108 55 140 45 184 -5 22 -5 40 1
46 6 6 8 18 5 28 -3 16 -5 16 -10 4z"/>
<path d="M3107 1430 c19 -22 29 -19 20 5 -4 8 -13 15 -22 15 -13 0 -12 -3 2
-20z"/>
<path d="M2169 1370 c-63 -118 -159 -180 -285 -184 -41 -1 -74 1 -74 6 0 4 -9
8 -19 8 -11 0 -23 5 -26 10 -8 13 -25 13 -25 0 0 -11 85 -50 121 -54 14 -2 55
1 89 6 101 13 195 78 228 158 19 45 35 110 27 110 -2 0 -18 -27 -36 -60z"/>
<path d="M1628 1273 c7 -3 16 -2 19 1 4 3 -2 6 -13 5 -11 0 -14 -3 -6 -6z"/>
<path d="M1194 951 c6 -10 66 -33 66 -26 0 5 -56 35 -65 35 -3 0 -4 -4 -1 -9z"/>
<path d="M3234 918 c-36 -9 -69 -43 -78 -80 -8 -34 11 -47 23 -16 10 27 78 78
104 78 9 0 17 4 17 9 0 14 -32 18 -66 9z"/>
<path d="M2860 668 c0 -4 14 -8 32 -8 17 0 28 3 24 8 -10 10 -56 10 -56 0z"/>
<path d="M3060 640 c-12 -8 -11 -10 8 -10 12 0 22 5 22 10 0 13 -11 13 -30 0z"/>
</g>
</svg>
